# xmcd CD database file
#
# Track frame offsets:
#	150
#	38340
#	70097
#	100805
#	127757
#	167062
#	205075
#
# Disc length: 3193 seconds
#
# Revision: 1
# Processed by: cddbd v1.5.1PL0 Copyright (c) Steve Scherf et al.
# Submitted via: CDex 1.51
#
DISCID=4d0c7707
DTITLE=THE GEORGE WALLINGTON QUINTET - Live! at Cafe Bohemia
DYEAR=1955
DGENRE=Jazz
TTITLE0=JOHNNY ONE NOTE
TTITLE1=SWEET BLANCHE
TTITLE2=MINOR MARCH
TTITLE3=SNAKES
TTITLE4=JAY MAC'S CRIB
TTITLE5=BOHEMIA AFTER DARK
TTITLE6=MINOR MARCH(alternate)
EXTD=YEAR: 1955
EXTT0=
EXTT1=
EXTT2=
EXTT3=
EXTT4=
EXTT5=
EXTT6=
PLAYORDER=
